# Blender v2.68 (sub 0) OBJ File: 'road1.blend'
# www.blender.org
o edge_right_Cube.005
v 5.986210 -4.992000 0.800000
v 5.986210 5.008000 0.800000
v 5.986210 -4.992000 -0.200000
v 6.186210 5.008000 0.800000
v 5.986210 5.008000 -0.200000
v 6.186210 -4.992000 0.800000
v 6.186210 5.008000 -0.200000
v 6.186210 -4.992000 -0.200000
vt 0.666667 0.665647
vn -1.000000 0.000000 0.000000
vn 0.000000 1.000000 -0.000000
vn 1.000000 0.000000 -0.000000
vn 0.000000 -1.000000 0.000000
vn -0.000000 -0.000000 -1.000000
vn 0.000000 -0.000000 1.000000
s off
f 1/1/1 2/1/1 3/1/1
f 2/1/2 4/1/2 5/1/2
f 4/1/3 6/1/3 7/1/3
f 6/1/4 1/1/4 8/1/4
f 3/1/5 5/1/5 8/1/5
f 4/1/6 1/1/6 6/1/6
f 2/1/1 5/1/1 3/1/1
f 4/1/2 7/1/2 5/1/2
f 6/1/3 8/1/3 7/1/3
f 1/1/4 3/1/4 8/1/4
f 5/1/5 7/1/5 8/1/5
f 2/1/6 1/1/6 4/1/6
o edge_left_Cube
v -6.185507 -5.008000 0.800000
v -6.185507 4.992000 0.800000
v -6.185507 -5.008000 -0.200000
v -5.985507 4.992000 0.800000
v -6.185507 4.992000 -0.200000
v -5.985507 -5.008000 0.800000
v -5.985507 4.992000 -0.200000
v -5.985507 -5.008000 -0.200000
vt 0.666667 0.665647
vt 0.334353 0.666667
vt 0.665647 0.333333
vt 0.001020 0.333333
vt 0.000000 0.001020
vt 0.333333 0.332314
vt 1.000000 0.665647
vt 0.667686 0.666667
vt 0.998981 0.333333
vt 0.334353 0.333333
vt 0.333333 0.001019
vt 0.666667 0.332314
vt 0.333333 0.665647
vt 0.001020 0.666667
vt 0.332314 0.333333
vt 0.665647 0.666667
vt 0.334353 1.000000
vt 0.333333 0.667686
vt 0.333333 0.334353
vt 0.332314 0.000000
vt 0.666667 0.334353
vt 0.665647 0.000000
vt 0.000000 0.334353
vt 0.666667 0.998981
s off
f 9/2/1 10/3/1 11/4/1
f 10/5/2 12/6/2 13/7/2
f 12/8/3 14/9/3 15/10/3
f 14/11/4 9/12/4 16/13/4
f 11/14/5 13/15/5 16/16/5
f 12/17/6 9/18/6 14/19/6
f 10/3/1 13/20/1 11/4/1
f 12/6/2 15/21/2 13/7/2
f 14/9/3 16/22/3 15/10/3
f 9/12/4 11/23/4 16/13/4
f 13/15/5 15/24/5 16/16/5
f 10/25/6 9/18/6 12/17/6
