# Blender v2.68 (sub 0) OBJ File: 'road1.blend'
# www.blender.org
o edge_right_Cube.005
v -2.000000 4.992000 -0.200000
v -2.000000 -5.008000 -0.200000
v -2.200000 -5.008000 -0.200000
v -2.200000 4.992000 -0.200000
v -2.000000 4.992000 0.800000
v -2.000000 -5.008000 0.800000
v -2.200000 -5.008000 0.800000
v -2.200000 4.992000 0.800000
vn 1.000000 0.000000 -0.000000
vn 0.000000 -1.000000 0.000000
vn -1.000000 0.000000 0.000000
vn 0.000000 1.000000 -0.000000
vn 0.000000 0.000000 -1.000000
vn 0.000000 -0.000000 1.000000
s off
f 5//1 6//1 1//1
f 6//2 7//2 2//2
f 7//3 8//3 3//3
f 8//4 5//4 4//4
f 1//5 2//5 4//5
f 8//6 7//6 5//6
f 6//1 2//1 1//1
f 7//2 3//2 2//2
f 8//3 4//3 3//3
f 5//4 1//4 4//4
f 2//5 3//5 4//5
f 7//6 6//6 5//6
o edge_left_Cube
v 2.200000 5.008000 -0.200000
v 2.200000 -4.992000 -0.200000
v 2.000000 -4.992000 -0.200000
v 2.000000 5.008000 -0.200000
v 2.200000 5.008000 0.800000
v 2.200000 -4.992000 0.800000
v 2.000000 -4.992000 0.800000
v 2.000000 5.008000 0.800000
vt 0.666667 0.665647
vt 0.334353 0.666667
vt 0.665647 0.333333
vt 0.001020 0.333333
vt 0.000000 0.001020
vt 0.333333 0.332314
vt 1.000000 0.665647
vt 0.667686 0.666667
vt 0.998981 0.333333
vt 0.334353 0.333333
vt 0.333333 0.001019
vt 0.666667 0.332314
vt 0.333333 0.665647
vt 0.001020 0.666667
vt 0.332314 0.333333
vt 0.333333 0.667686
vt 0.665647 0.666667
vt 0.334353 1.000000
vt 0.333333 0.334353
vt 0.332314 0.000000
vt 0.666667 0.334353
vt 0.665647 0.000000
vt 0.000000 0.334353
vt 0.666667 0.998981
s off
f 13/1/1 14/2/1 9/3/1
f 14/4/2 15/5/2 10/6/2
f 15/7/3 16/8/3 11/9/3
f 16/10/4 13/11/4 12/12/4
f 9/13/5 10/14/5 12/15/5
f 16/16/6 15/17/6 13/18/6
f 14/2/1 10/19/1 9/3/1
f 15/5/2 11/20/2 10/6/2
f 16/8/3 12/21/3 11/9/3
f 13/11/4 9/22/4 12/12/4
f 10/14/5 11/23/5 12/15/5
f 15/17/6 14/24/6 13/18/6
