# Blender v2.68 (sub 0) OBJ File: 'road1.blend'
# www.blender.org
o edge_right_Cube.005
v 2.000000 -0.200000 4.992000
v 2.000000 -0.200000 -5.008000
v 2.200000 -0.200000 -5.008000
v 2.200000 -0.200000 4.992000
v 2.000000 0.800000 4.992000
v 2.000000 0.800000 -5.008000
v 2.200000 0.800000 -5.008000
v 2.200000 0.800000 4.992000
vn -1.000000 0.000000 0.000000
vn 0.000000 0.000000 -1.000000
vn 1.000000 -0.000000 0.000000
vn 0.000000 -0.000000 1.000000
vn -0.000000 -1.000000 0.000000
vn -0.000000 1.000000 0.000000
s off
f 5//1 6//1 1//1
f 6//2 7//2 2//2
f 7//3 8//3 3//3
f 8//4 5//4 4//4
f 1//5 2//5 4//5
f 8//6 7//6 5//6
f 6//1 2//1 1//1
f 7//2 3//2 2//2
f 8//3 4//3 3//3
f 5//4 1//4 4//4
f 2//5 3//5 4//5
f 7//6 6//6 5//6
o edge_left_Cube
v -2.200000 -0.200000 5.008000
v -2.200000 -0.200000 -4.992000
v -2.000000 -0.200000 -4.992000
v -2.000000 -0.200000 5.008000
v -2.200000 0.800000 5.008000
v -2.200000 0.800000 -4.992000
v -2.000000 0.800000 -4.992000
v -2.000000 0.800000 5.008000
s off
f 13//1 14//1 9//1
f 14//2 15//2 10//2
f 15//3 16//3 11//3
f 16//4 13//4 12//4
f 9//5 10//5 12//5
f 16//6 15//6 13//6
f 14//1 10//1 9//1
f 15//2 11//2 10//2
f 16//3 12//3 11//3
f 13//4 9//4 12//4
f 10//5 11//5 12//5
f 15//6 14//6 13//6
