# Blender v2.68 (sub 0) OBJ File: 'road1.blend'
# www.blender.org
o Cylinder.002_Cylinder.003
v 8.000000 -5.000000 -0.200000
v 8.000000 -5.000000 0.200000
v 7.024549 -4.903926 -0.200000
v 7.024549 -4.903926 0.200000
v 6.086583 -4.619398 -0.200000
v 6.086583 -4.619398 0.200000
v 5.222149 -4.157348 -0.200000
v 5.222149 -4.157348 0.200000
v 4.464466 -3.535534 -0.200000
v 4.464466 -3.535534 0.200000
v 3.842652 -2.777851 -0.200000
v 3.842652 -2.777851 0.200000
v 3.380602 -1.913417 -0.200000
v 3.380602 -1.913417 0.200000
v 3.096074 -0.975452 -0.200000
v 3.096074 -0.975452 0.200000
v 3.000000 -0.000000 -0.200000
v 3.000000 -0.000000 0.200000
v 6.086583 -4.619398 0.200000
v 6.086583 -4.619398 0.200000
v 5.222149 -4.157348 -0.200000
v 5.222149 -4.157348 0.200000
v 4.464466 -3.535534 -0.200000
v 4.464466 -3.535534 0.200000
v 3.380602 -1.913417 -0.200000
v 3.096074 -0.975452 -0.200000
v 3.096074 -0.975452 0.200000
v 8.000001 0.000000 0.200000
v 8.000001 0.000000 -0.200000
v 8.000000 -12.000000 -0.200000
v 8.000000 -12.000000 0.200000
v 5.658916 -11.769423 -0.200000
v 5.658916 -11.769423 0.200000
v 3.407798 -11.086555 -0.200000
v 3.407798 -11.086555 0.200000
v 1.333157 -9.977635 -0.200000
v 1.333157 -9.977635 0.200000
v -0.485281 -8.485281 -0.200000
v -0.485281 -8.485281 0.200000
v -1.977636 -6.666842 -0.200000
v -1.977636 -6.666842 0.200000
v -3.086555 -4.592201 -0.200000
v -3.086555 -4.592201 0.200000
v -3.769423 -2.341084 -0.200000
v -3.769423 -2.341084 0.200000
v -4.000000 -0.000001 -0.200000
v -4.000000 -0.000001 0.200000
v 8.000000 -12.000000 -0.200000
v 8.000000 -12.000000 -0.200000
v 5.658916 -11.769423 -0.200000
v 5.658916 -11.769423 -0.200000
v 3.407798 -11.086555 -0.200000
v 3.407798 -11.086555 -0.200000
v 3.407798 -11.086555 0.200000
v 1.333157 -9.977635 -0.200000
v 1.333157 -9.977635 -0.200000
v -0.485281 -8.485281 -0.200000
v -0.485281 -8.485281 -0.200000
v -0.485281 -8.485281 0.200000
v -1.977636 -6.666842 -0.200000
v -1.977636 -6.666842 -0.200000
v -3.086555 -4.592201 -0.200000
v -3.086555 -4.592201 -0.200000
v -3.086555 -4.592201 0.200000
v -3.769423 -2.341084 -0.200000
v -3.769423 -2.341084 -0.200000
v -4.000000 -0.000001 -0.200000
v -4.000000 -0.000001 -0.200000
v -4.000000 -0.000001 0.200000
v 8.000002 0.000000 0.200000
v 8.000000 -5.000000 0.200000
v 8.000000 -5.000000 0.200000
v 8.000000 -5.000000 0.200000
vn -0.634393 -0.773010 -0.000000
vn -0.773011 -0.634393 -0.000000
vn 0.881921 0.471397 0.000000
vn -0.995185 -0.098017 -0.000000
vn -0.098017 -0.995185 -0.000000
vn -0.471397 -0.881921 -0.000000
vn -0.773010 -0.634394 -0.000000
vn -0.956940 -0.290285 -0.000000
vn 0.098017 0.995185 -0.000000
vn 0.290285 0.956940 0.000000
vn 0.956940 0.290285 -0.000000
vn 0.000000 -1.000000 0.000000
vn 1.000000 -0.000000 0.000000
vn 0.000000 0.000000 -1.000000
vn -0.881921 -0.471397 0.000000
vn -0.634394 -0.773010 0.000000
vn -0.290285 -0.956940 0.000000
vn -0.000000 0.000000 1.000000
s off
f 21//1 22//1 23//1
f 23//2 24//2 11//2
f 14//3 12//3 25//3
f 26//4 27//4 17//4
f 30//5 31//5 32//5
f 52//6 54//6 36//6
f 57//7 59//7 40//7
f 62//8 64//8 44//8
f 66//4 45//4 68//4
f 20//6 22//6 5//6
f 73//9 1//9 4//9
f 20//10 4//10 5//10
f 14//11 25//11 27//11
f 18//12 69//12 17//12
f 1//13 73//13 49//13
f 1//14 49//14 51//14
f 41//15 64//15 61//15
f 37//16 59//16 56//16
f 53//17 51//17 54//17
f 45//18 18//18 69//18
f 22//1 24//1 23//1
f 24//2 12//2 11//2
f 12//3 11//3 25//3
f 27//4 18//4 17//4
f 31//5 33//5 32//5
f 54//6 37//6 36//6
f 59//7 41//7 40//7
f 64//8 45//8 44//8
f 45//4 69//4 68//4
f 22//6 21//6 5//6
f 1//9 3//9 4//9
f 4//10 3//10 5//10
f 25//11 26//11 27//11
f 69//12 68//12 17//12
f 73//13 31//13 49//13
f 17//14 66//14 68//14
f 1//14 51//14 53//14
f 17//14 63//14 66//14
f 1//14 53//14 56//14
f 17//14 61//14 63//14
f 17//14 58//14 61//14
f 3//14 1//14 56//14
f 5//14 3//14 56//14
f 5//14 56//14 58//14
f 21//14 5//14 58//14
f 23//14 21//14 58//14
f 11//14 23//14 58//14
f 25//14 11//14 58//14
f 26//14 25//14 58//14
f 17//14 26//14 58//14
f 64//15 63//15 61//15
f 59//16 58//16 56//16
f 51//17 33//17 54//17
f 73//18 33//18 31//18
f 64//18 18//18 45//18
f 73//18 54//18 33//18
f 41//18 18//18 64//18
f 73//18 37//18 54//18
f 59//18 18//18 41//18
f 4//18 37//18 73//18
f 20//18 37//18 4//18
f 20//18 59//18 37//18
f 22//18 59//18 20//18
f 24//18 59//18 22//18
f 24//18 12//18 59//18
f 12//18 14//18 59//18
f 14//18 27//18 59//18
f 27//18 18//18 59//18
